<svg width="75" height="49" viewBox="0 0 75 49" fill="none" xmlns="http://www.w3.org/2000/svg">
<rect width="75" height="40" rx="5" fill="white"/>
<path d="M17.348 25.14C16.6667 25.14 16.0413 25.0187 15.472 24.776C14.9027 24.5333 14.408 24.188 13.988 23.74C13.568 23.2827 13.2413 22.746 13.008 22.13C12.784 21.514 12.672 20.8373 12.672 20.1C12.672 19.4 12.7933 18.7513 13.036 18.154C13.288 17.5473 13.6333 17.0153 14.072 16.558C14.5107 16.1007 15.0193 15.746 15.598 15.494C16.1767 15.242 16.802 15.116 17.474 15.116C17.95 15.116 18.412 15.1907 18.86 15.34C19.3173 15.48 19.728 15.6807 20.092 15.942C20.4653 16.194 20.7687 16.4833 21.002 16.81L19.994 17.86C19.7233 17.5893 19.448 17.3653 19.168 17.188C18.8973 17.0013 18.6173 16.8613 18.328 16.768C18.048 16.6747 17.7633 16.628 17.474 16.628C17.0167 16.628 16.5873 16.7167 16.186 16.894C15.794 17.062 15.4487 17.3 15.15 17.608C14.8607 17.916 14.632 18.2847 14.464 18.714C14.296 19.134 14.212 19.596 14.212 20.1C14.212 20.632 14.2913 21.1173 14.45 21.556C14.618 21.9853 14.8513 22.354 15.15 22.662C15.4487 22.97 15.8033 23.208 16.214 23.376C16.634 23.5347 17.096 23.614 17.6 23.614C17.908 23.614 18.2113 23.572 18.51 23.488C18.8087 23.404 19.0887 23.2827 19.35 23.124C19.6113 22.9653 19.8493 22.7787 20.064 22.564L20.82 23.796C20.6053 24.048 20.3113 24.2767 19.938 24.482C19.574 24.6873 19.1633 24.8507 18.706 24.972C18.258 25.084 17.8053 25.14 17.348 25.14ZM25.814 25.14C25.0953 25.14 24.4513 24.9767 23.882 24.65C23.322 24.314 22.8786 23.8613 22.552 23.292C22.2253 22.7133 22.062 22.0553 22.062 21.318C22.062 20.5807 22.2253 19.9273 22.552 19.358C22.8786 18.7793 23.322 18.3267 23.882 18C24.4513 17.664 25.0953 17.496 25.814 17.496C26.5233 17.496 27.158 17.664 27.718 18C28.2873 18.3267 28.7353 18.7793 29.062 19.358C29.3886 19.9273 29.552 20.5807 29.552 21.318C29.552 22.0553 29.3886 22.7133 29.062 23.292C28.7353 23.8613 28.2873 24.314 27.718 24.65C27.158 24.9767 26.5233 25.14 25.814 25.14ZM25.814 23.824C26.2526 23.824 26.6446 23.7167 26.99 23.502C27.3353 23.278 27.606 22.9793 27.802 22.606C27.998 22.2233 28.0913 21.794 28.082 21.318C28.0913 20.8327 27.998 20.4033 27.802 20.03C27.606 19.6473 27.3353 19.3487 26.99 19.134C26.6446 18.9193 26.2526 18.812 25.814 18.812C25.3753 18.812 24.9786 18.924 24.624 19.148C24.2786 19.3627 24.008 19.6613 23.812 20.044C23.616 20.4173 23.5226 20.842 23.532 21.318C23.5226 21.794 23.616 22.2233 23.812 22.606C24.008 22.9793 24.2786 23.278 24.624 23.502C24.9786 23.7167 25.3753 23.824 25.814 23.824ZM31.1232 28.08V17.65H32.5792V19.33L32.3552 19.204C32.4112 18.924 32.5699 18.658 32.8312 18.406C33.0926 18.1447 33.4099 17.9347 33.7832 17.776C34.1659 17.608 34.5579 17.524 34.9592 17.524C35.6219 17.524 36.2099 17.6873 36.7232 18.014C37.2366 18.3407 37.6426 18.7887 37.9412 19.358C38.2399 19.9273 38.3892 20.5807 38.3892 21.318C38.3892 22.046 38.2399 22.6993 37.9412 23.278C37.6519 23.8473 37.2506 24.3 36.7372 24.636C36.2239 24.9627 35.6452 25.126 35.0012 25.126C34.5719 25.126 34.1566 25.042 33.7552 24.874C33.3539 24.6967 33.0132 24.4727 32.7332 24.202C32.4532 23.9313 32.2806 23.6513 32.2152 23.362L32.5792 23.166V28.08H31.1232ZM34.7632 23.796C35.1926 23.796 35.5752 23.6887 35.9112 23.474C36.2472 23.2593 36.5132 22.9653 36.7092 22.592C36.9052 22.2187 37.0032 21.794 37.0032 21.318C37.0032 20.842 36.9052 20.422 36.7092 20.058C36.5226 19.6847 36.2612 19.3907 35.9252 19.176C35.5892 18.9613 35.2019 18.854 34.7632 18.854C34.3246 18.854 33.9372 18.9613 33.6012 19.176C33.2652 19.3813 32.9992 19.6707 32.8032 20.044C32.6072 20.4173 32.5092 20.842 32.5092 21.318C32.5092 21.794 32.6072 22.2187 32.8032 22.592C32.9992 22.9653 33.2652 23.2593 33.6012 23.474C33.9372 23.6887 34.3246 23.796 34.7632 23.796ZM40.1933 25V17.65H41.6353V25H40.1933ZM40.8933 16.026C40.5853 16.026 40.3473 15.9467 40.1793 15.788C40.0113 15.6293 39.9273 15.4053 39.9273 15.116C39.9273 14.8453 40.0113 14.626 40.1793 14.458C40.3566 14.29 40.5946 14.206 40.8933 14.206C41.2013 14.206 41.4393 14.2853 41.6073 14.444C41.7753 14.6027 41.8593 14.8267 41.8593 15.116C41.8593 15.3867 41.7706 15.606 41.5933 15.774C41.4253 15.942 41.1919 16.026 40.8933 16.026ZM47.2818 25.14C46.5258 25.14 45.8538 24.9813 45.2658 24.664C44.6871 24.3373 44.2298 23.894 43.8938 23.334C43.5671 22.774 43.4038 22.13 43.4038 21.402C43.4038 20.8233 43.4971 20.296 43.6838 19.82C43.8704 19.344 44.1271 18.9333 44.4538 18.588C44.7898 18.2333 45.1864 17.9627 45.6438 17.776C46.1104 17.58 46.6144 17.482 47.1558 17.482C47.6318 17.482 48.0751 17.5753 48.4858 17.762C48.8964 17.9393 49.2511 18.1867 49.5498 18.504C49.8578 18.8213 50.0911 19.1993 50.2498 19.638C50.4178 20.0673 50.4971 20.5387 50.4878 21.052L50.4738 21.668H44.4678L44.1458 20.52H49.2278L49.0178 20.758V20.422C48.9898 20.114 48.8871 19.8387 48.7098 19.596C48.5324 19.3533 48.3084 19.162 48.0378 19.022C47.7671 18.882 47.4731 18.812 47.1558 18.812C46.6518 18.812 46.2271 18.91 45.8818 19.106C45.5364 19.2927 45.2751 19.5727 45.0978 19.946C44.9204 20.31 44.8318 20.7627 44.8318 21.304C44.8318 21.8173 44.9391 22.2653 45.1538 22.648C45.3684 23.0213 45.6718 23.3107 46.0638 23.516C46.4558 23.7213 46.9084 23.824 47.4218 23.824C47.7858 23.824 48.1218 23.7633 48.4298 23.642C48.7471 23.5207 49.0878 23.3013 49.4518 22.984L50.1798 24.006C49.9558 24.23 49.6804 24.426 49.3538 24.594C49.0364 24.762 48.6958 24.8973 48.3318 25C47.9771 25.0933 47.6271 25.14 47.2818 25.14ZM55.1209 25.14C54.4489 25.14 53.8469 24.9767 53.3149 24.65C52.7922 24.314 52.3769 23.8613 52.0689 23.292C51.7609 22.7133 51.6069 22.0553 51.6069 21.318C51.6069 20.5807 51.7562 19.9273 52.0549 19.358C52.3629 18.7793 52.7782 18.3267 53.3009 18C53.8235 17.664 54.4162 17.496 55.0789 17.496C55.4429 17.496 55.7929 17.5567 56.1289 17.678C56.4742 17.79 56.7822 17.9487 57.0529 18.154C57.3235 18.35 57.5335 18.5693 57.6829 18.812C57.8415 19.0453 57.9209 19.2833 57.9209 19.526L57.5009 19.554V14.64H58.9429V25H57.5009V23.25H57.7809C57.7809 23.474 57.7062 23.698 57.5569 23.922C57.4075 24.1367 57.2069 24.3373 56.9549 24.524C56.7122 24.7107 56.4275 24.86 56.1009 24.972C55.7835 25.084 55.4569 25.14 55.1209 25.14ZM55.3169 23.894C55.7555 23.894 56.1429 23.782 56.4789 23.558C56.8149 23.334 57.0762 23.0307 57.2629 22.648C57.4589 22.256 57.5569 21.8127 57.5569 21.318C57.5569 20.8233 57.4589 20.3847 57.2629 20.002C57.0762 19.61 56.8149 19.302 56.4789 19.078C56.1429 18.854 55.7555 18.742 55.3169 18.742C54.8782 18.742 54.4909 18.854 54.1549 19.078C53.8189 19.302 53.5529 19.61 53.3569 20.002C53.1702 20.3847 53.0769 20.8233 53.0769 21.318C53.0769 21.8127 53.1702 22.256 53.3569 22.648C53.5529 23.0307 53.8189 23.334 54.1549 23.558C54.4909 23.782 54.8782 23.894 55.3169 23.894ZM61.1379 21.626C61.0726 21.038 61.0119 20.4313 60.9559 19.806C60.9093 19.1713 60.8719 18.546 60.8439 17.93C60.8159 17.314 60.8019 16.7307 60.8019 16.18V15.2H62.3139V16.18C62.3139 16.7587 62.2999 17.3653 62.2719 18C62.2439 18.6347 62.2019 19.2647 62.1459 19.89C62.0993 20.506 62.0433 21.0847 61.9779 21.626H61.1379ZM61.5159 25.154C61.2079 25.154 60.9699 25.0653 60.8019 24.888C60.6339 24.7013 60.5499 24.44 60.5499 24.104C60.5499 23.796 60.6386 23.544 60.8159 23.348C60.9933 23.152 61.2266 23.054 61.5159 23.054C61.8239 23.054 62.0619 23.1473 62.2299 23.334C62.3979 23.5113 62.4819 23.768 62.4819 24.104C62.4819 24.412 62.3933 24.664 62.2159 24.86C62.0386 25.056 61.8053 25.154 61.5159 25.154Z" fill="black"/>
<path d="M38 49L32.8038 40H43.1962L38 49Z" fill="white"/>
</svg>
