<svg width="40" height="40" viewBox="0 0 40 40" fill="none" xmlns="http://www.w3.org/2000/svg">
<path d="M33.3334 18.3333C32.9258 15.4004 31.5651 12.6828 29.4611 10.5992C27.357 8.51556 24.6263 7.18153 21.6895 6.80259C18.7527 6.42365 15.7727 7.02081 13.2087 8.50208C10.6447 9.98335 8.63877 12.2666 7.50002 15M6.66669 8.33334V15H13.3334" stroke="white" stroke-width="2" stroke-linecap="round" stroke-linejoin="round"/>
<path d="M6.66669 21.6667C7.07429 24.5996 8.43491 27.3172 10.539 29.4008C12.643 31.4844 15.3738 32.8185 18.3106 33.1974C21.2474 33.5764 24.2273 32.9792 26.7914 31.4979C29.3554 30.0166 31.3613 27.7334 32.5 25M33.3334 31.6667V25H26.6667" stroke="white" stroke-width="2" stroke-linecap="round" stroke-linejoin="round"/>
</svg>
