<svg width="30" height="40" viewBox="0 0 30 40" fill="none" xmlns="http://www.w3.org/2000/svg">
<path d="M22 14.3333C22 13.4493 21.7366 12.6014 21.2678 11.9763C20.7989 11.3512 20.163 11 19.5 11H9.5C8.83696 11 8.20107 11.3512 7.73223 11.9763C7.26339 12.6014 7 13.4493 7 14.3333V27.6667C7 28.5507 7.26339 29.3986 7.73223 30.0237C8.20107 30.6488 8.83696 31 9.5 31H19.5C20.163 31 20.7989 30.6488 21.2678 30.0237C21.7366 29.3986 22 28.5507 22 27.6667V14.3333Z" stroke="black" stroke-width="2" stroke-linecap="round" stroke-linejoin="round"/>
<path d="M11 10C11 9.11595 11.2634 8.60143 11.7322 7.97631C12.2011 7.35119 12.837 7 13.5 7H23.5C24.163 7 24.7989 7.35119 25.2678 7.97631C25.7366 8.60143 26 9.44928 26 10.3333V23.6667C26 24.5507 25.7366 25.3986 25.2678 26.0237C24.7989 26.6488 24.163 27 23.5 27H23" stroke="black" stroke-width="2" stroke-linecap="round" stroke-linejoin="round"/>
</svg>
